<?xml version="1.0"?><svg width="640" height="480" xmlns="http://www.w3.org/2000/svg">
 <title>Light Blue Splash</title>
 <metadata id="metadata7">image/svg+xml</metadata>
 <g>
  <title>Layer 1</title>
  <g display="inline" id="layer3">
   <g id="g3883">
    <path fill="#42a8ed" stroke="#42a8ed" stroke-width="3" stroke-linecap="round" stroke-linejoin="round" stroke-miterlimit="4" d="m440.421692,38.59906c-2.989014,-0.566299 -1.969727,-3.371487 -1.744049,-5.73344l12.552551,-16.711887c4.40387,-5.863159 7.380829,-5.0392 10.172699,0.284119c2.79184,5.323338 -0.951935,9.130455 -4.768433,12.927368c-3.816528,3.796913 -11.14856,10.193386 -16.212769,9.233841z" id="path3686"/>
    <path fill="#42a8ed" stroke="#42a8ed" stroke-width="3" stroke-linecap="round" stroke-linejoin="round" stroke-miterlimit="4" d="m215.833069,386.434357c-3.90567,8.176056 -6.583237,17.020752 -7.904877,23.392181c-1.375488,6.631439 -6.697296,5.751617 -10.143646,0.743896c-3.446259,-5.007599 -0.207123,-9.168121 3.105499,-13.325684c3.3125,-4.157654 9.789963,-11.25293 14.943024,-10.810394z" id="path3686-3"/>
    <path fill="#42a8ed" stroke="#42a8ed" stroke-width="3" stroke-linecap="round" stroke-linejoin="round" stroke-miterlimit="4" d="m169.36911,424.18515c-4.395645,7.160706 -10.216019,13.986511 -14.826645,18.542328c-4.798737,4.74176 -1.168747,10.938782 5.541504,10.026428c6.710312,-0.912323 9.065979,-9.473816 10.202972,-13.282837c1.136963,-3.809326 3.841415,-8.960297 2.943283,-12.59375c-0.350159,-1.416534 -1.010345,-4.03656 -3.861115,-2.692169z" id="path3686-3-7"/>
    <path fill="#42a8ed" stroke="#42a8ed" stroke-width="3" stroke-linecap="round" stroke-linejoin="round" stroke-miterlimit="4" d="m173.677795,83.751938c-3.956329,-7.223557 -7.783401,-15.128746 -13.573639,-19.293625c-5.573029,-4.008591 -10.881683,-5.115189 -12.482056,0.780022c-1.600494,5.895218 6.369736,11.090317 9.882126,13.475235c3.512451,2.384888 7.81958,6.575012 11.921936,7.210304c1.599426,0.247704 4.562241,0.695442 4.251633,-2.171936z" id="path3686-3-7-4"/>
    <path fill="#42a8ed" stroke="#42a8ed" stroke-width="3" stroke-linecap="round" stroke-linejoin="round" stroke-miterlimit="4" d="m94.282364,126.773895c0,0 -17.378006,-14.375702 -26.114159,-18.444534c-15.388359,-7.167145 -20.44767,-2.272385 -19.722214,4.264099c0.725399,6.536514 13.816849,9.01265 19.318161,10.876389c2.373566,0.804077 15.977654,4.342911 22.963432,4.671234c2.077156,0.097626 3.554779,-1.367188 3.554779,-1.367188z" id="path3686-3-7-4-5"/>
    <path fill="#42a8ed" stroke="#42a8ed" stroke-width="3" stroke-linecap="round" stroke-linejoin="round" stroke-miterlimit="4" d="m142.226273,346.696869c-6.244614,2.399384 -10.501389,5.238068 -15.136551,8.51474c-4.490585,3.174347 -12.353188,18.881073 4.130463,6.202576c2.274307,-2.629181 4.791443,-4.186096 11.006088,-14.717316z" id="path3686-3-7-4-5-2"/>
    <path fill="#42a8ed" stroke="#42a8ed" stroke-width="3" stroke-linecap="round" stroke-linejoin="round" stroke-miterlimit="4" d="m177.19339,193.66304c-37.667648,-16.428314 -114.731789,-50.623062 14.386459,-9.643265c2.424881,0.769592 26.563751,4.876999 1.798294,-6.428833c-4.736664,-2.162384 -10.58165,-4.630875 -8.810333,-6.435257c2.418655,-2.463867 0.297928,-6.580032 -2.395966,-7.211624c-17.238358,-4.041397 3.689148,-5.8965 -5.809143,-11.638748c-10.410721,-6.293854 -17.549225,-15.228409 -25.88385,-21.190857c-52.588379,-37.620995 -43.664734,-62.521423 10.910782,-10.765076c4.896454,4.64357 11.234665,2.565857 20.438889,7.274933c5.068359,2.593079 11.31778,10.940155 17.242905,16.7995c2.788406,2.757538 6.533325,-3.391052 4.411942,-6.680267c-17.245178,-26.738937 -0.196716,-17.701096 11.933624,-5.476089c9.151031,9.222427 6.821701,-1.070633 10.38942,-0.250015c4.309677,0.991333 7.223022,7.229752 8.08812,7.852676c10.271667,7.395828 14.001404,-0.757187 8.728867,-4.081985c-6.539825,-4.123917 -0.137146,-5.985504 1.852188,-7.168518c1.982391,-1.178894 -21.757996,-23.377975 -11.310883,-24.541115c11.119125,-1.237915 4.586121,-6.537415 2.418991,-8.310127c-23.135635,-18.925133 -25.42627,-55.519844 8.054184,-17.36261c5.114227,5.828484 9.178711,14.224335 15.085938,23.724548c1.610321,2.589714 -0.940033,13.834778 9.833099,5.797493c1.719879,-1.283127 1.656738,-0.888077 2.617004,-1.478966c2.158875,-1.328392 3.373077,7.686981 5.326202,10.036514c1.956177,2.353317 6.490387,7.68576 6.896332,4.395172c0.311676,-2.526428 4.238464,-4.982071 5.211792,-3.139053c14.16156,26.816071 8.819916,-2.008987 10.78891,-2.263702c6.617798,-0.856125 -6.975922,-24.379044 7.425201,-14.319992c1.046112,0.730713 5.609467,-1.615936 5.760651,-4.501251c2.649261,-50.568718 20.199951,-56.340664 14.451508,-2.573624c-0.19397,1.814255 -2.031464,2.985352 3.992584,5.357498c1.848297,0.727791 8.315857,-0.371216 5.821777,4.717827c-2.864899,5.845673 2.460846,22.069313 7.586975,5.728737c1.125427,-3.587494 7.225677,-17.861069 9.459351,-4.709602c0.475006,2.796593 1.855988,19.544609 7.891968,6.648109c46.93689,-100.286024 67.830048,-93.275589 18.489532,-3.754189c-14.318329,25.978691 3.310638,13.999153 6.194519,10.454475c5.110107,-6.28093 23.898956,-35.148117 23.984955,-21.473412c0.004181,0.707138 -2.48645,2.564857 -2.34201,3.98983c0.319855,3.157402 3.910645,5.761124 7.841644,0.133087c14.882416,-21.306702 25.435791,-22.759239 23.932037,-14.372116c-1.418274,7.910103 7.390198,-0.576073 11.380371,-4.879517c4.696136,-5.064789 8.632294,-10.292244 13.009857,-13.727425c22.901611,-17.971672 39.727661,-15.180672 14.902435,10.414322c-4.751038,4.898384 -14.720337,7.857857 -21.813507,15.185104c-6.773621,6.997238 -15.991943,10.430771 -19.514587,19.14669c-1.245758,3.082306 -16.492401,12.376633 -2.779999,9.574341c2.194458,-0.448456 2.047913,2.75293 2.905701,3.825027c3.063904,3.829697 4.645844,4.428284 10.723419,-0.609558c34.71048,-28.772316 56.910339,-7.53598 -10.753876,22.727997c-6.474396,2.895798 -33.703949,26.602219 -6.48999,13.050995c2.361084,-1.17569 10.175079,-0.99173 4.192719,5.477432c-2.012543,2.176285 -28.933807,20.542618 9.49054,4.173508c3.727753,-1.588089 5.447052,-0.144119 6.704376,7.05069c1.765198,10.102631 21.058777,-6.330124 26.236481,-7.823547c37.561584,-10.834015 53.546021,12.552444 -17.398285,16.576981c-17.486725,0.991974 -11.772064,5.492279 -5.458923,6.733658c21.103027,4.149536 -8.142151,8.992554 -10.982849,9.606506c-13.488922,2.915482 -29.512695,-2.209641 -28.308197,6.424561c1.128479,8.088776 11.185303,-3.488068 27.361755,0.014252c2.943115,0.637207 18.70343,10.870773 -11.26123,9.129852c-5.952545,-0.34581 -9.990906,6.74501 11.655487,6.159454c10.967224,-0.296707 13.805939,7.517776 -3.442932,5.599808c-4.913116,-0.546295 -22.27243,-1.085449 11.188385,7.82988c155.819153,41.516495 69.569702,43.516129 -7.642822,21.697403c-5.312378,-1.50119 -45.44516,-4.551147 -8.760986,8.036865c6.762817,2.320557 15.366577,8.557068 -3.407593,7.828278c-7.938782,-0.308075 -19.143127,3.687408 1.065613,9.05777c9.755707,2.592529 25.395569,11.083527 1.33902,7.975372c-15.44989,-1.996155 -10.611084,6.835571 1.711273,10.516724c38.356628,11.458679 66.018555,42.723724 13.0961,25.702728c-4.313293,-1.387268 -9.42041,-4.183258 -14.259674,-7.440887c-14.821136,-9.976624 -23.076355,-11.759613 -19.126434,-4.479034c0.986847,1.819061 11.281525,8.063538 -6.119385,2.103882c-22.413635,-7.676422 1.510529,10.255096 7.037903,15.634674c5.527405,5.379639 43.274628,30.506927 -6.361542,11.115753c-2.825409,-1.10376 25.579285,20.531464 4.632874,14.14505c-3.190552,-0.972809 -2.631226,4.208069 -1.173157,5.493164c13.027191,11.481934 11.711395,29.755554 -12.704926,3.91687c-3.87561,-4.101318 -3.41806,-8.867035 -9.853851,-5.363037c-3.984131,2.169098 -7.513245,-5.219818 -10.730316,-9.619415c-11.011963,-15.060333 -35.174744,-40.284943 -10.193359,0.720459c8.310028,13.64032 -3.74884,12.107788 -8.841492,6.215668c-24.884094,-28.789886 -18.779572,-8.670929 -11.311493,7.127075c1.472595,3.115143 -8.617126,0.063934 -9.072327,2.789001c-0.467743,2.799835 3.948059,17.882721 11.579102,26.379974c17.155823,19.102936 -4.644012,60.286102 -23.784241,8.434265c-2.66217,-7.211975 -0.691681,-20.410522 -3.898804,-31.174438c-1.130524,-3.79422 0.348999,-10.148987 -2.375732,-13.996521c-4.735535,-6.686951 -14.930542,-10.36319 -8.685791,13.859283c0.708771,2.749237 -1.542053,1.959564 -3.223694,0.809174c-3.154541,-2.157928 -12.007751,-5.060516 -7.490417,2.063995c10.36554,16.347534 -11.811127,38.802002 -13.531219,11.53009c-0.461487,-7.317505 1.391113,-8.526154 1.139069,-12.658813c-0.098999,-1.622131 -2.12085,-5.464478 -1.101746,-9.043884c3.332611,-11.706177 -6.848022,-16.399658 -8.038361,-2.099945c-1.87738,22.55365 -10.685211,1.212097 -10.246948,4.592468c4.482056,34.570251 -24.467468,41.292816 -12.803009,-0.576752c0.725922,-2.605652 -1.809784,-6.237457 -1.078613,-9.345825c1.956635,-8.318634 1.901917,-18.104736 0.90683,-26.200012c-1.74408,-14.189117 -6.377228,-23.184082 -8.132477,-9.978912c-0.493774,3.714905 -2.827637,8.903687 -4.277527,16.530884c-0.736618,3.874878 -7.582458,4.017822 -8.053467,0.964142c-1.363007,-8.83786 -4.861237,-11.641846 -6.727203,-4.440521c-7.248611,27.973267 -29.135193,58.161957 -20.260437,11.93924c0.525177,-2.735382 0.271515,-5.962494 1.70256,-9.077332c10.672623,-23.22998 -6.513535,-4.439301 -7.885727,-1.355042c-9.205872,20.690643 -14.221832,3.826385 -7.262085,-8.551361c9.74585,-17.332672 6.483643,-12.006744 6.939499,-12.824066c2.524368,-4.526093 1.560349,-8.406738 -3.16925,-2.986694c-3.796722,4.351013 -0.094986,-4.994476 -5.13295,-0.881317c-2.938675,2.399261 -10.249573,10.02832 -14.814545,13.57547c-5.071564,3.940826 -6.909561,1.302521 -3.923355,-2.217865c4.425125,-5.216675 -1.312668,-7.36441 -4.390717,-0.258972c-0.798355,1.842987 -3.580093,3.09671 -6.055313,4.815002c-18.87352,13.102173 -13.943665,-0.901215 2.218231,-12.881927c2.710281,-2.009033 5.874481,-3.95932 9.513779,-5.47052c1.105438,-0.458954 6.792389,-7.705811 2.599426,-6.984955c-16.529129,2.841736 1.592728,-4.755219 3.20784,-6.643524c3.250046,-3.799835 9.762085,-5.224884 11.697266,-5.834015c4.617523,-1.453278 10.628464,-2.270081 14.711151,-4.343994c12.513519,-6.356812 -25.724792,3.148987 -15.427643,-6.754364c28.493027,-27.403259 -1.317581,-14.007111 -19.806793,-1.705475c-29.152054,19.395966 -80.492889,8.12558 -5.864471,-9.640472c14.334641,-3.412476 20.525833,-7.421021 4.815201,-7.249939c-0.572632,0.006012 -4.930008,-0.920074 -8.729797,0.906982c-10.639877,5.115723 -24.987106,1.850067 8.031403,-6.761841c2.225891,-0.580566 23.266541,-8.665619 -2.829254,-6.657104c-4.940964,0.380249 -8.858002,2.161713 -11.768112,3.143188c-15.878906,5.355591 -7.55687,-7.987366 3.756851,-10.706726c5.329895,-1.281128 6.699554,-13.374084 -5.305222,-12.0867c-7.185806,0.770569 -16.983765,-3.28598 -25.183578,-3.5867c-7.475601,-0.27417 -14.713043,0.207031 -19.560341,0.54834c-50.899857,3.583908 -38.022911,-31.110718 31.792198,-19.399506c9.390778,1.575256 34.35939,9.834839 26.210678,-4.941513c-2.109161,-3.824646 6.432724,-5.472519 6.432724,-8.750381c0,-0.000046 0,-0.000046 0,-0.000046z" id="path2891-5"/>
   </g>
  </g>
 </g>
</svg>